<svg id="visual" viewBox="0 0 960 540" width="960" height="540" xmlns="http://www.w3.org/2000/svg" xmlns:xlink="http://www.w3.org/1999/xlink" version="1.1"><rect x="0" y="0" width="960" height="540" fill="#001220"></rect><path d="M0 336L22.8 343.7C45.7 351.3 91.3 366.7 137 371C182.7 375.3 228.3 368.7 274 357.8C319.7 347 365.3 332 411.2 332.3C457 332.7 503 348.3 548.8 354C594.7 359.7 640.3 355.3 686 348C731.7 340.7 777.3 330.3 823 332.3C868.7 334.3 914.3 348.7 937.2 355.8L960 363L960 541L937.2 541C914.3 541 868.7 541 823 541C777.3 541 731.7 541 686 541C640.3 541 594.7 541 548.8 541C503 541 457 541 411.2 541C365.3 541 319.7 541 274 541C228.3 541 182.7 541 137 541C91.3 541 45.7 541 22.8 541L0 541Z" fill="#fa7268"></path><path d="M0 425L22.8 416.2C45.7 407.3 91.3 389.7 137 382.5C182.7 375.3 228.3 378.7 274 379.7C319.7 380.7 365.3 379.3 411.2 385.2C457 391 503 404 548.8 411.7C594.7 419.3 640.3 421.7 686 413.2C731.7 404.7 777.3 385.3 823 376.7C868.7 368 914.3 370 937.2 371L960 372L960 541L937.2 541C914.3 541 868.7 541 823 541C777.3 541 731.7 541 686 541C640.3 541 594.7 541 548.8 541C503 541 457 541 411.2 541C365.3 541 319.7 541 274 541C228.3 541 182.7 541 137 541C91.3 541 45.7 541 22.8 541L0 541Z" fill="#ef5f67"></path><path d="M0 411L22.8 417.7C45.7 424.3 91.3 437.7 137 445.8C182.7 454 228.3 457 274 450.5C319.7 444 365.3 428 411.2 419.5C457 411 503 410 548.8 413.3C594.7 416.7 640.3 424.3 686 430.7C731.7 437 777.3 442 823 441.3C868.7 440.7 914.3 434.3 937.2 431.2L960 428L960 541L937.2 541C914.3 541 868.7 541 823 541C777.3 541 731.7 541 686 541C640.3 541 594.7 541 548.8 541C503 541 457 541 411.2 541C365.3 541 319.7 541 274 541C228.3 541 182.7 541 137 541C91.3 541 45.7 541 22.8 541L0 541Z" fill="#e34c67"></path><path d="M0 481L22.8 473.2C45.7 465.3 91.3 449.7 137 444.8C182.7 440 228.3 446 274 448C319.7 450 365.3 448 411.2 448.2C457 448.3 503 450.7 548.8 450.5C594.7 450.3 640.3 447.7 686 450.7C731.7 453.7 777.3 462.3 823 467.8C868.7 473.3 914.3 475.7 937.2 476.8L960 478L960 541L937.2 541C914.3 541 868.7 541 823 541C777.3 541 731.7 541 686 541C640.3 541 594.7 541 548.8 541C503 541 457 541 411.2 541C365.3 541 319.7 541 274 541C228.3 541 182.7 541 137 541C91.3 541 45.7 541 22.8 541L0 541Z" fill="#d53867"></path><path d="M0 475L22.8 480.3C45.7 485.7 91.3 496.3 137 500C182.7 503.7 228.3 500.3 274 498.3C319.7 496.3 365.3 495.7 411.2 493.8C457 492 503 489 548.8 485.2C594.7 481.3 640.3 476.7 686 474.7C731.7 472.7 777.3 473.3 823 480.5C868.7 487.7 914.3 501.3 937.2 508.2L960 515L960 541L937.2 541C914.3 541 868.7 541 823 541C777.3 541 731.7 541 686 541C640.3 541 594.7 541 548.8 541C503 541 457 541 411.2 541C365.3 541 319.7 541 274 541C228.3 541 182.7 541 137 541C91.3 541 45.7 541 22.8 541L0 541Z" fill="#c62368"></path></svg>